<svg width="14" height="14" viewBox="0 0 14 14" fill="none" xmlns="http://www.w3.org/2000/svg">
<path d="M5.26159 1H8.73781C8.97426 0.999972 9.2084 1.04653 9.42685 1.13702C9.6453 1.22751 9.84378 1.36015 10.0109 1.52737L12.4714 3.98725C12.639 4.15459 12.7718 4.35334 12.8624 4.57211C12.953 4.79089 12.9996 5.02539 12.9994 5.26219V8.73841C12.9994 8.97486 12.9529 9.209 12.8624 9.42745C12.7719 9.6459 12.6392 9.84438 12.472 10.0116L10.0121 12.472C9.84496 12.6394 9.6464 12.7722 9.42784 12.8628C9.20928 12.9534 8.97501 13 8.73841 13H5.26159C5.0251 13 4.79093 12.9533 4.57248 12.8627C4.35403 12.7721 4.15557 12.6394 3.98845 12.472L1.52797 10.0122C1.3605 9.84489 1.22767 9.64623 1.13707 9.42757C1.04647 9.2089 0.999893 8.97451 1 8.73781V5.26159C0.999972 5.02514 1.04653 4.791 1.13702 4.57255C1.22751 4.3541 1.36015 4.15562 1.52737 3.98845L3.98725 1.52797C4.15459 1.36043 4.35334 1.22755 4.57211 1.13695C4.79089 1.04635 5.02539 0.999814 5.26219 1H5.26159Z" stroke="#FE8D00" stroke-width="1.5" stroke-linecap="round" stroke-linejoin="round"/>
<path d="M6.99951 5.19983H7.00651" stroke="#FE8D00" stroke-width="1.5" stroke-linecap="round" stroke-linejoin="round"/>
<path d="M6.3999 6.99963H6.99987V9.39951H7.59984" stroke="#FE8D00" stroke-width="1.5" stroke-linecap="round" stroke-linejoin="round"/>
</svg>
