<svg xmlns="http://www.w3.org/2000/svg" width="20" height="20" viewBox="0 0 20 20" fill="none">
  <path d="M18.333 5.00033V7.01699C18.333 8.33366 17.4997 9.16699 16.183 9.16699H13.333V3.34199C13.333 2.41699 14.0913 1.66699 15.0163 1.66699C15.9247 1.67533 16.758 2.04199 17.358 2.64199C17.958 3.25032 18.333 4.08366 18.333 5.00033Z" stroke="#35B7F3" stroke-width="1.5" stroke-miterlimit="10" stroke-linecap="round" stroke-linejoin="round"/>
  <path d="M1.66699 5.83366V17.5003C1.66699 18.192 2.45033 18.5837 3.00033 18.167L4.42532 17.1003C4.75866 16.8503 5.22533 16.8837 5.52533 17.1837L6.90865 18.5753C7.23365 18.9003 7.767 18.9003 8.092 18.5753L9.49199 17.1753C9.78366 16.8837 10.2503 16.8503 10.5753 17.1003L12.0003 18.167C12.5503 18.5753 13.3337 18.1837 13.3337 17.5003V3.33366C13.3337 2.41699 14.0837 1.66699 15.0003 1.66699H5.83366H5.00033C2.50033 1.66699 1.66699 3.15866 1.66699 5.00033V5.83366Z" stroke="#35B7F3" stroke-width="1.5" stroke-miterlimit="10" stroke-linecap="round" stroke-linejoin="round"/>
  <path d="M5.20801 8.33301H9.79134" stroke="#35B7F3" stroke-width="1.5" stroke-linecap="round" stroke-linejoin="round"/>
  <path d="M7.5 10.6253V6.04199" stroke="#35B7F3" stroke-width="1.5" stroke-linecap="round" stroke-linejoin="round"/>
</svg>