<svg width="13" height="13" viewBox="0 0 13 13" fill="none" xmlns="http://www.w3.org/2000/svg">
<path d="M5.27799 2.22222C5.27799 1.89807 5.40676 1.58719 5.63598 1.35798C5.86519 1.12877 6.17606 1 6.50022 1C6.82437 1 7.13525 1.12877 7.36446 1.35798C7.59367 1.58719 7.72244 1.89807 7.72244 2.22222C8.42424 2.55407 9.02252 3.07064 9.45314 3.71657C9.88376 4.3625 10.1305 5.11343 10.1669 5.88889V7.72222C10.2129 8.10215 10.3474 8.46598 10.5597 8.78441C10.772 9.10284 11.0561 9.36698 11.3891 9.55556H1.61133C1.94435 9.36698 2.22843 9.10284 2.44072 8.78441C2.65301 8.46598 2.78756 8.10215 2.83355 7.72222V5.88889C2.86995 5.11343 3.11668 4.3625 3.5473 3.71657C3.97792 3.07064 4.57619 2.55407 5.27799 2.22222Z" stroke="#111111" stroke-width="1.5" stroke-linecap="round" stroke-linejoin="round"/>
<path d="M4.6665 9.55554V10.1667C4.6665 10.6529 4.85966 11.1192 5.20347 11.463C5.54729 11.8068 6.01361 12 6.49984 12C6.98607 12 7.45238 11.8068 7.7962 11.463C8.14002 11.1192 8.33317 10.6529 8.33317 10.1667V9.55554" stroke="#111111" stroke-width="1.5" stroke-linecap="round" stroke-linejoin="round"/>
<path d="M11.9999 3.27761C11.5991 2.40571 11.017 1.62926 10.2925 1" stroke="#111111" stroke-width="1.5" stroke-linecap="round" stroke-linejoin="round"/>
<path d="M1 3.27761C1.40049 2.40582 1.98215 1.62938 2.70622 1" stroke="#111111" stroke-width="1.5" stroke-linecap="round" stroke-linejoin="round"/>
</svg>
