<svg xmlns="http://www.w3.org/2000/svg" width="20" height="20" viewBox="0 0 20 20" fill="none">
  <g clip-path="url(#clip0_3958_2510)">
    <path d="M2.5 6.66699C2.5 6.00395 2.76339 5.36807 3.23223 4.89923C3.70107 4.43038 4.33696 4.16699 5 4.16699H15C15.663 4.16699 16.2989 4.43038 16.7678 4.89923C17.2366 5.36807 17.5 6.00395 17.5 6.66699V13.3337C17.5 13.9967 17.2366 14.6326 16.7678 15.1014C16.2989 15.5703 15.663 15.8337 15 15.8337H5C4.33696 15.8337 3.70107 15.5703 3.23223 15.1014C2.76339 14.6326 2.5 13.9967 2.5 13.3337V6.66699Z" stroke="#35B7F3" stroke-width="1.5" stroke-linecap="round" stroke-linejoin="round"/>
    <path d="M2.5 8.33301H17.5" stroke="#35B7F3" stroke-width="1.5" stroke-linecap="round" stroke-linejoin="round"/>
    <path d="M5.83301 12.5H5.84134" stroke="#35B7F3" stroke-width="1.5" stroke-linecap="round" stroke-linejoin="round"/>
    <path d="M9.16699 12.5H10.8337" stroke="#35B7F3" stroke-width="1.5" stroke-linecap="round" stroke-linejoin="round"/>
  </g>
  <defs>
    <clipPath id="clip0_3958_2510">
      <rect width="20" height="20" fill="white"/>
    </clipPath>
  </defs>
</svg>