<svg width="14" height="14" viewBox="0 0 14 14" fill="none" xmlns="http://www.w3.org/2000/svg">
<path d="M1.5 7C1.5 7.72227 1.64226 8.43747 1.91866 9.10476C2.19506 9.77205 2.60019 10.3784 3.11091 10.8891C3.62163 11.3998 4.22795 11.8049 4.89524 12.0813C5.56253 12.3577 6.27773 12.5 7 12.5C7.72227 12.5 8.43747 12.3577 9.10476 12.0813C9.77205 11.8049 10.3784 11.3998 10.8891 10.8891C11.3998 10.3784 11.8049 9.77205 12.0813 9.10476C12.3577 8.43747 12.5 7.72227 12.5 7C12.5 6.27773 12.3577 5.56253 12.0813 4.89524C11.8049 4.22795 11.3998 3.62163 10.8891 3.11091C10.3784 2.60019 9.77205 2.19506 9.10476 1.91866C8.43747 1.64226 7.72227 1.5 7 1.5C6.27773 1.5 5.56253 1.64226 4.89524 1.91866C4.22795 2.19506 3.62163 2.60019 3.11091 3.11091C2.60019 3.62163 2.19506 4.22795 1.91866 4.89524C1.64226 5.56253 1.5 6.27773 1.5 7Z" stroke="#111111" stroke-width="1.5" stroke-linecap="round" stroke-linejoin="round"/>
<path d="M7 8H9.13889" stroke="#111111" stroke-width="1.5" stroke-linecap="round" stroke-linejoin="round"/>
<path d="M7 4.94446V8.00001" stroke="#111111" stroke-width="1.5" stroke-linecap="round" stroke-linejoin="round"/>
</svg>
