<svg xmlns="http://www.w3.org/2000/svg" width="20" height="20" viewBox="0 0 20 20" fill="none">
  <path d="M7.50033 18.3337H12.5003C16.667 18.3337 18.3337 16.667 18.3337 12.5003V7.50033C18.3337 3.33366 16.667 1.66699 12.5003 1.66699H7.50033C3.33366 1.66699 1.66699 3.33366 1.66699 7.50033V12.5003C1.66699 16.667 3.33366 18.3337 7.50033 18.3337Z" stroke="#35B7F3" stroke-width="1.5" stroke-linecap="round" stroke-linejoin="round"/>
  <path d="M5.83301 10.1328H8.06634C8.65801 10.1328 9.05801 10.5828 9.05801 11.1245V12.3662C9.05801 12.9079 8.65801 13.3579 8.06634 13.3579H6.82468C6.28301 13.3579 5.83301 12.9079 5.83301 12.3662V10.1328" stroke="#35B7F3" stroke-width="1.5" stroke-linecap="round" stroke-linejoin="round"/>
  <path d="M5.83301 10.1333C5.83301 7.80827 6.26634 7.4166 7.57467 6.6416" stroke="#35B7F3" stroke-width="1.5" stroke-linecap="round" stroke-linejoin="round"/>
  <path d="M10.9492 10.1328H13.1826C13.7742 10.1328 14.1742 10.5828 14.1742 11.1245V12.3662C14.1742 12.9079 13.7742 13.3579 13.1826 13.3579H11.9409C11.3992 13.3579 10.9492 12.9079 10.9492 12.3662V10.1328" stroke="#35B7F3" stroke-width="1.5" stroke-linecap="round" stroke-linejoin="round"/>
  <path d="M10.9492 10.1333C10.9492 7.80827 11.3826 7.4166 12.6909 6.6416" stroke="#35B7F3" stroke-width="1.5" stroke-linecap="round" stroke-linejoin="round"/>
</svg>