<svg xmlns="http://www.w3.org/2000/svg" width="20" height="20" viewBox="0 0 20 20" fill="none">
  <path d="M17.0837 9.41698V5.867C17.0837 2.50867 16.3003 1.66699 13.1503 1.66699H6.85033C3.70033 1.66699 2.91699 2.50867 2.91699 5.867V15.2503C2.91699 17.467 4.13367 17.992 5.60867 16.4087L5.61698 16.4003C6.30032 15.6753 7.34198 15.7336 7.93365 16.5253L8.77532 17.6503" stroke="#35B7F3" stroke-width="1.5" stroke-linecap="round" stroke-linejoin="round"/>
  <path d="M6.66699 5.83301H13.3337" stroke="#35B7F3" stroke-width="1.5" stroke-linecap="round" stroke-linejoin="round"/>
  <path d="M7.5 9.16699H12.5" stroke="#35B7F3" stroke-width="1.5" stroke-linecap="round" stroke-linejoin="round"/>
  <path d="M15.1755 12.3086L12.2255 15.2586C12.1089 15.3752 12.0005 15.5919 11.9755 15.7502L11.8172 16.8752C11.7588 17.2836 12.0422 17.5669 12.4505 17.5086L13.5755 17.3502C13.7339 17.3252 13.9589 17.2169 14.0672 17.1002L17.0172 14.1502C17.5255 13.6419 17.7672 13.0502 17.0172 12.3002C16.2755 11.5586 15.6838 11.8002 15.1755 12.3086Z" stroke="#35B7F3" stroke-width="1.5" stroke-miterlimit="10" stroke-linecap="round" stroke-linejoin="round"/>
  <path d="M14.749 12.7334C14.999 13.6334 15.699 14.3334 16.599 14.5834" stroke="#35B7F3" stroke-width="1.5" stroke-miterlimit="10" stroke-linecap="round" stroke-linejoin="round"/>
</svg>