<svg width="22" height="22" viewBox="0 0 22 22" fill="none" xmlns="http://www.w3.org/2000/svg">
<path d="M2.42857 13.7571H2.32857V13.8571V15.2857V15.3857H2.42857H5.46286L0.929289 19.9193L0.858579 19.99L0.929289 20.0607L1.93929 21.0707L2.01 21.1414L2.08071 21.0707L6.61429 16.5371V19.5714V19.6714H6.71429H8.14286H8.24286V19.5714V13.8571V13.7571H8.14286H2.42857ZM18.2429 14.5714V14.4714H18.1429H16.7144H16.6144V14.5714V18.1429V18.2429H16.7144H18.1429H18.2429V18.1429V14.5714ZM15.3858 11V10.9H15.2858H13.8572H13.7572V11V18.1429V18.2429H13.8572H15.2858H15.3858V18.1429V11ZM12.5286 12.4286V12.3286H12.4286H11H10.9V12.4286V18.1429V18.2429H11H12.4286H12.5286V18.1429V12.4286ZM19.5715 0.9H19.5714L2.42857 0.9L2.42847 0.9C2.02322 0.900405 1.63468 1.06157 1.34813 1.34813C1.06157 1.63468 0.900405 2.02322 0.9 2.42847V2.42857V11V11.1H1H2.42857H2.52857V11V8.95714H19.4721L19.4729 19.4714H11H10.9V19.5714V21V21.1H11H19.5714H19.5716C19.9768 21.0995 20.3652 20.9382 20.6517 20.6517C20.9382 20.3652 21.0995 19.9768 21.1 19.5716V19.5714V2.42857V2.42846C21.0995 2.02323 20.9384 1.63473 20.6518 1.34819C20.3653 1.06165 19.9768 0.900465 19.5715 0.9ZM8.04286 7.32857H2.52857V2.52857H8.04286V7.32857ZM9.67143 7.32857V2.52857H19.4714L19.4719 7.32857H9.67143Z" fill="#35B7F3" stroke="#35B7F3" stroke-width="0.2"/>
</svg>
