<svg width="15" height="16" viewBox="0 0 15 16" fill="none" xmlns="http://www.w3.org/2000/svg">
<path d="M1 4.11111H13.4444" stroke="#E34545" stroke-width="1.5" stroke-linecap="round" stroke-linejoin="round"/>
<path d="M5.66602 7.22223V11.8889" stroke="#E34545" stroke-width="1.5" stroke-linecap="round" stroke-linejoin="round"/>
<path d="M8.77734 7.22223V11.8889" stroke="#E34545" stroke-width="1.5" stroke-linecap="round" stroke-linejoin="round"/>
<path d="M1.77734 4.11111L2.55512 13.4444C2.55512 13.857 2.71901 14.2527 3.01073 14.5444C3.30246 14.8361 3.69812 15 4.11068 15H10.3329C10.7455 15 11.1411 14.8361 11.4328 14.5444C11.7246 14.2527 11.8885 13.857 11.8885 13.4444L12.6662 4.11111" stroke="#E34545" stroke-width="1.5" stroke-linecap="round" stroke-linejoin="round"/>
<path d="M4.88867 4.11111V1.77778C4.88867 1.5715 4.97062 1.37367 5.11648 1.22781C5.26234 1.08194 5.46017 1 5.66645 1H8.77756C8.98384 1 9.18167 1.08194 9.32753 1.22781C9.47339 1.37367 9.55534 1.5715 9.55534 1.77778V4.11111" stroke="#E34545" stroke-width="1.5" stroke-linecap="round" stroke-linejoin="round"/>
</svg>
