<svg xmlns="http://www.w3.org/2000/svg" width="21" height="18" viewBox="0 0 21 18" fill="none">
  <path d="M16.7229 13.2463C17.5921 13.2463 18.4256 12.9003 19.0402 12.2843C19.6547 11.6684 20 10.833 20 9.96188C20 9.09079 19.6547 8.25537 19.0402 7.63942C18.4256 7.02346 17.5921 6.67742 16.7229 6.67742H15.7866C15.9232 6.06741 15.9253 5.4391 15.7927 4.82836C15.6602 4.21762 15.3955 3.63642 15.0139 3.11794C14.6323 2.59946 14.1413 2.15385 13.5688 1.80655C12.9963 1.45925 12.3535 1.21708 11.6773 1.09384C11.001 0.970607 10.3044 0.96873 9.62737 1.08832C8.9503 1.2079 8.30597 1.44661 7.73117 1.79082C6.57031 2.48597 5.76314 3.56861 5.48723 4.80059C4.48908 4.76051 3.50744 5.05434 2.71039 5.63174C1.91334 6.20915 1.35045 7.03422 1.11811 7.9657C0.885762 8.89718 0.998408 9.87712 1.43676 10.7377C1.87511 11.5984 2.6119 12.2861 3.52098 12.6833M10.1688 8.55425V17M10.1688 17L7.35985 14.1848M10.1688 17L12.9777 14.1848" stroke="#999999" stroke-width="1.5" stroke-linecap="round" stroke-linejoin="round"/>
</svg>