<svg xmlns="http://www.w3.org/2000/svg" width="20" height="20" viewBox="0 0 20 20" fill="none">
  <path d="M16.6667 5.86699V14.1337C16.6667 15.4003 16.55 16.3003 16.25 16.942C16.25 16.9503 16.2417 16.967 16.2333 16.9753C16.05 17.2087 15.8083 17.3253 15.525 17.3253C15.0833 17.3253 14.55 17.0337 13.975 16.417C13.2917 15.6837 12.2416 15.742 11.6416 16.542L10.8 17.6587C10.4667 18.1087 10.025 18.3337 9.58333 18.3337C9.14167 18.3337 8.69998 18.1087 8.36665 17.6587L7.51668 16.5337C6.92502 15.742 5.88333 15.6837 5.19999 16.4087L5.19165 16.417C4.24998 17.4253 3.41668 17.5753 2.93335 16.9753C2.92502 16.967 2.91667 16.9503 2.91667 16.942C2.61667 16.3003 2.5 15.4003 2.5 14.1337V5.86699C2.5 4.60033 2.61667 3.70032 2.91667 3.05866C2.91667 3.05032 2.91668 3.04199 2.93335 3.03366C3.40835 2.42532 4.24998 2.57532 5.19165 3.58366L5.19999 3.59199C5.88333 4.31699 6.92502 4.25866 7.51668 3.46699L8.36665 2.34199C8.69998 1.89199 9.14167 1.66699 9.58333 1.66699C10.025 1.66699 10.4667 1.89199 10.8 2.34199L11.6416 3.45866C12.2416 4.25866 13.2917 4.31699 13.975 3.58366C14.55 2.96699 15.0833 2.67532 15.525 2.67532C15.8083 2.67532 16.05 2.80032 16.2333 3.03366C16.25 3.04199 16.25 3.05032 16.25 3.05866C16.55 3.70032 16.6667 4.60033 16.6667 5.86699Z" stroke="#35B7F3" stroke-width="1.5" stroke-linecap="round" stroke-linejoin="round"/>
  <path d="M6.66699 8.54199H13.3337" stroke="#35B7F3" stroke-width="1.5" stroke-linecap="round" stroke-linejoin="round"/>
  <path d="M6.66699 11.458H11.667" stroke="#35B7F3" stroke-width="1.5" stroke-linecap="round" stroke-linejoin="round"/>
</svg>