<svg width="16" height="16" viewBox="0 0 16 16" fill="none" xmlns="http://www.w3.org/2000/svg">
<path d="M8.01008 10.3334L14.5317 3.7884C14.838 3.48207 15.0101 3.06661 15.0101 2.63341C15.0101 2.2002 14.838 1.78474 14.5317 1.47841C14.2254 1.17209 13.8099 1 13.3767 1C12.9435 1 12.528 1.17209 12.2217 1.47841L5.67676 8.00003V10.3334H8.01008Z" stroke="#35B7F3" stroke-width="1.5" stroke-linecap="round" stroke-linejoin="round"/>
<path d="M11.1211 2.55563L13.4544 4.88895" stroke="#35B7F3" stroke-width="1.5" stroke-linecap="round" stroke-linejoin="round"/>
<path d="M5.67645 4.16563C4.31207 4.36002 3.07219 5.06461 2.2069 6.13727C1.3416 7.20992 0.915303 8.57082 1.01398 9.94543C1.11266 11.3201 1.72898 12.6061 2.73862 13.5442C3.74825 14.4822 5.07607 15.0025 6.45422 15C7.76352 15.0001 9.02902 14.5285 10.0188 13.6714C11.0086 12.8143 11.6564 11.6292 11.8434 10.3334" stroke="#35B7F3" stroke-width="1.5" stroke-linecap="round" stroke-linejoin="round"/>
</svg>
