<svg xmlns="http://www.w3.org/2000/svg" width="24" height="24" viewBox="0 0 24 24" fill="none">
  <g clip-path="url(#clip0_3958_3435)">
    <path d="M11.36 20.213L9 21V12.5L4.52 7.572C4.18545 7.20393 4.00005 6.7244 4 6.227V4H20V6.172C19.9999 6.70239 19.7891 7.21101 19.414 7.586L15 12" stroke="#999999" stroke-width="2" stroke-linecap="round" stroke-linejoin="round"/>
    <path d="M15 18C15 18.7956 15.3161 19.5587 15.8787 20.1213C16.4413 20.6839 17.2044 21 18 21C18.7956 21 19.5587 20.6839 20.1213 20.1213C20.6839 19.5587 21 18.7956 21 18C21 17.2044 20.6839 16.4413 20.1213 15.8787C19.5587 15.3161 18.7956 15 18 15C17.2044 15 16.4413 15.3161 15.8787 15.8787C15.3161 16.4413 15 17.2044 15 18Z" stroke="#999999" stroke-width="2" stroke-linecap="round" stroke-linejoin="round"/>
    <path d="M20.2002 20.2002L22.0002 22.0002" stroke="#999999" stroke-width="2" stroke-linecap="round" stroke-linejoin="round"/>
  </g>
  <defs>
    <clipPath id="clip0_3958_3435">
      <rect width="24" height="24" fill="white"/>
    </clipPath>
  </defs>
</svg>