<svg width="40" height="40" viewBox="0 0 40 40" fill="none" xmlns="http://www.w3.org/2000/svg">
<rect width="40" height="40" rx="10" fill="white"/>
<rect x="0.5" y="0.5" width="39" height="39" rx="9.5" stroke="black" stroke-opacity="0.12"/>
<path d="M19.5789 27.1579H13.6842C13.2375 27.1579 12.8091 26.9805 12.4933 26.6646C12.1774 26.3487 12 25.9204 12 25.4737V13.6842C12 13.2375 12.1774 12.8091 12.4933 12.4933C12.8091 12.1774 13.2375 12 13.6842 12H25.4737C25.9204 12 26.3487 12.1774 26.6646 12.4933C26.9805 12.8091 27.1579 13.2375 27.1579 13.6842V20.4211" stroke="#999999" stroke-width="1.5" stroke-linecap="round" stroke-linejoin="round"/>
<path d="M12 17.8947H27.1579" stroke="#999999" stroke-width="1.5" stroke-linecap="round" stroke-linejoin="round"/>
<path d="M17.8945 12V27.1579" stroke="#999999" stroke-width="1.5" stroke-linecap="round" stroke-linejoin="round"/>
<path d="M25.4736 28V22.9474" stroke="#999999" stroke-width="1.5" stroke-linecap="round" stroke-linejoin="round"/>
<path d="M27.9999 25.4737L25.4736 22.9474L22.9473 25.4737" stroke="#999999" stroke-width="1.5" stroke-linecap="round" stroke-linejoin="round"/>
</svg>
