<svg xmlns="http://www.w3.org/2000/svg" width="20" height="20" viewBox="0 0 20 20" fill="none">
  <g clip-path="url(#clip0_3958_2848)">
    <path d="M4.16699 10.8337C4.16699 10.3916 4.34259 9.96771 4.65515 9.65515C4.96771 9.34259 5.39163 9.16699 5.83366 9.16699H14.167C14.609 9.16699 15.0329 9.34259 15.3455 9.65515C15.6581 9.96771 15.8337 10.3916 15.8337 10.8337V15.8337C15.8337 16.2757 15.6581 16.6996 15.3455 17.0122C15.0329 17.3247 14.609 17.5003 14.167 17.5003H5.83366C5.39163 17.5003 4.96771 17.3247 4.65515 17.0122C4.34259 16.6996 4.16699 16.2757 4.16699 15.8337V10.8337Z" stroke="#35B7F3" stroke-width="1.5" stroke-linecap="round" stroke-linejoin="round"/>
    <path d="M9.16699 13.3333C9.16699 13.5543 9.25479 13.7663 9.41107 13.9226C9.56735 14.0789 9.77931 14.1667 10.0003 14.1667C10.2213 14.1667 10.4333 14.0789 10.5896 13.9226C10.7459 13.7663 10.8337 13.5543 10.8337 13.3333C10.8337 13.1123 10.7459 12.9004 10.5896 12.7441C10.4333 12.5878 10.2213 12.5 10.0003 12.5C9.77931 12.5 9.56735 12.5878 9.41107 12.7441C9.25479 12.9004 9.16699 13.1123 9.16699 13.3333Z" stroke="#35B7F3" stroke-width="1.5" stroke-linecap="round" stroke-linejoin="round"/>
    <path d="M6.66699 9.16667V5.83333C6.66699 4.94928 7.01818 4.10143 7.6433 3.47631C8.26842 2.85119 9.11627 2.5 10.0003 2.5C10.8844 2.5 11.7322 2.85119 12.3573 3.47631C12.9825 4.10143 13.3337 4.94928 13.3337 5.83333V9.16667" stroke="#35B7F3" stroke-width="1.5" stroke-linecap="round" stroke-linejoin="round"/>
  </g>
  <defs>
    <clipPath id="clip0_3958_2848">
      <rect width="20" height="20" fill="white"/>
    </clipPath>
  </defs>
</svg>