<svg xmlns="http://www.w3.org/2000/svg" width="20" height="20" viewBox="0 0 20 20" fill="none">
  <path d="M16.0831 6.60023V10.8919C16.0831 13.4586 14.6165 14.5586 12.4165 14.5586H5.09147C4.71647 14.5586 4.35813 14.5253 4.0248 14.4503C3.81647 14.4169 3.61647 14.3586 3.43314 14.2919C2.18314 13.8253 1.4248 12.7419 1.4248 10.8919V6.60023C1.4248 4.03356 2.89147 2.93359 5.09147 2.93359H12.4165C14.2831 2.93359 15.6248 3.72526 15.9831 5.53359C16.0415 5.86692 16.0831 6.20856 16.0831 6.60023Z" stroke="#35B7F3" stroke-width="1.5" stroke-miterlimit="10" stroke-linecap="round" stroke-linejoin="round"/>
  <path d="M18.5837 9.09984V13.3915C18.5837 15.9582 17.1171 17.0582 14.9171 17.0582H7.59206C6.97539 17.0582 6.41706 16.9749 5.93373 16.7915C4.94206 16.4249 4.26706 15.6665 4.02539 14.4499C4.35872 14.5249 4.71706 14.5582 5.09206 14.5582H12.4171C14.6171 14.5582 16.0837 13.4582 16.0837 10.8915V6.59984C16.0837 6.20818 16.0504 5.8582 15.9837 5.5332C17.5671 5.86654 18.5837 6.98318 18.5837 9.09984Z" stroke="#35B7F3" stroke-width="1.5" stroke-miterlimit="10" stroke-linecap="round" stroke-linejoin="round"/>
  <path d="M8.74884 10.9498C9.96387 10.9498 10.9489 9.96484 10.9489 8.74982C10.9489 7.53479 9.96387 6.5498 8.74884 6.5498C7.53381 6.5498 6.54883 7.53479 6.54883 8.74982C6.54883 9.96484 7.53381 10.9498 8.74884 10.9498Z" stroke="#35B7F3" stroke-width="1.5" stroke-miterlimit="10" stroke-linecap="round" stroke-linejoin="round"/>
  <path d="M3.9834 6.91699V10.5837" stroke="#35B7F3" stroke-width="1.5" stroke-miterlimit="10" stroke-linecap="round" stroke-linejoin="round"/>
  <path d="M13.5176 6.91699V10.5837" stroke="#35B7F3" stroke-width="1.5" stroke-miterlimit="10" stroke-linecap="round" stroke-linejoin="round"/>
</svg>