<svg width="21" height="21" viewBox="0 0 21 21" fill="none" xmlns="http://www.w3.org/2000/svg">
<g clip-path="url(#clip0_380_4840)">
<path d="M5 20.5C2.51472 20.5 0.5 18.4853 0.5 16C0.5 13.5147 2.51472 11.5 5 11.5C7.48528 11.5 9.5 13.5147 9.5 16C9.5 18.4853 7.48528 20.5 5 20.5ZM16 20.5C13.5147 20.5 11.5 18.4853 11.5 16C11.5 13.5147 13.5147 11.5 16 11.5C18.4853 11.5 20.5 13.5147 20.5 16C20.5 18.4853 18.4853 20.5 16 20.5ZM5 9.5C2.51472 9.5 0.5 7.48528 0.5 5C0.5 2.51472 2.51472 0.5 5 0.5C7.48528 0.5 9.5 2.51472 9.5 5C9.5 7.48528 7.48528 9.5 5 9.5ZM16 9.5C13.5147 9.5 11.5 7.48528 11.5 5C11.5 2.51472 13.5147 0.5 16 0.5C18.4853 0.5 20.5 2.51472 20.5 5C20.5 7.48528 18.4853 9.5 16 9.5ZM16 7.5C17.3807 7.5 18.5 6.38071 18.5 5C18.5 3.61929 17.3807 2.5 16 2.5C14.6193 2.5 13.5 3.61929 13.5 5C13.5 6.38071 14.6193 7.5 16 7.5ZM5 7.5C6.38071 7.5 7.5 6.38071 7.5 5C7.5 3.61929 6.38071 2.5 5 2.5C3.61929 2.5 2.5 3.61929 2.5 5C2.5 6.38071 3.61929 7.5 5 7.5ZM16 18.5C17.3807 18.5 18.5 17.3807 18.5 16C18.5 14.6193 17.3807 13.5 16 13.5C14.6193 13.5 13.5 14.6193 13.5 16C13.5 17.3807 14.6193 18.5 16 18.5ZM5 18.5C6.38071 18.5 7.5 17.3807 7.5 16C7.5 14.6193 6.38071 13.5 5 13.5C3.61929 13.5 2.5 14.6193 2.5 16C2.5 17.3807 3.61929 18.5 5 18.5Z" fill="#35B7F3"/>
</g>
<defs>
<clipPath id="clip0_380_4840">
<rect width="20" height="20" fill="white" transform="translate(0.5 0.5)"/>
</clipPath>
</defs>
</svg>
