<svg width="23" height="23" viewBox="0 0 23 23" fill="none" xmlns="http://www.w3.org/2000/svg">
<g clip-path="url(#clip0_380_4842)">
<path d="M5.89844 9.57961C9.34644 6.93961 13.8504 6.93961 17.3064 9.57961" stroke="#35B7F3" stroke-width="2" stroke-linecap="round" stroke-linejoin="round"/>
<path d="M7.42188 12.4833C9.95788 10.5473 13.2619 10.5473 15.7979 12.4833" stroke="#35B7F3" stroke-width="2" stroke-linecap="round" stroke-linejoin="round"/>
<path d="M9.51562 15.3881C10.7796 14.4201 12.4356 14.4201 13.6996 15.3881" stroke="#35B7F3" stroke-width="2" stroke-linecap="round" stroke-linejoin="round"/>
<path d="M8.75756 20.8996H14.4616C19.2136 20.8996 21.1176 19.0196 21.1176 14.3156V8.6836C21.1176 3.97961 19.2136 2.09961 14.4616 2.09961H8.75756C4.00556 2.09961 2.10156 3.97961 2.10156 8.6836V14.3236C2.10156 19.0196 4.00556 20.8996 8.75756 20.8996Z" stroke="#35B7F3" stroke-width="2" stroke-linecap="round" stroke-linejoin="round"/>
</g>
<defs>
<clipPath id="clip0_380_4842">
<rect width="22" height="22" fill="white" transform="translate(0.5 0.5)"/>
</clipPath>
</defs>
</svg>
