<svg xmlns="http://www.w3.org/2000/svg" width="20" height="20" viewBox="0 0 20 20" fill="none">
  <g clip-path="url(#clip0_3958_2628)">
    <path d="M11.667 2.5V5.83333C11.667 6.05435 11.7548 6.26631 11.9111 6.42259C12.0674 6.57887 12.2793 6.66667 12.5003 6.66667H15.8337" stroke="#999999" stroke-width="1.5" stroke-linecap="round" stroke-linejoin="round"/>
    <path d="M4.16699 10V4.16667C4.16699 3.72464 4.34259 3.30072 4.65515 2.98816C4.96771 2.67559 5.39163 2.5 5.83366 2.5H11.667L15.8337 6.66667V10" stroke="#999999" stroke-width="1.5" stroke-linecap="round" stroke-linejoin="round"/>
    <path d="M4.16699 15H5.41699C5.74851 15 6.06646 14.8683 6.30088 14.6339C6.5353 14.3995 6.66699 14.0815 6.66699 13.75C6.66699 13.4185 6.5353 13.1005 6.30088 12.8661C6.06646 12.6317 5.74851 12.5 5.41699 12.5H4.16699V17.5" stroke="#999999" stroke-width="1.5" stroke-linecap="round" stroke-linejoin="round"/>
    <path d="M14.167 15H15.8337" stroke="#999999" stroke-width="1.5" stroke-linecap="round" stroke-linejoin="round"/>
    <path d="M16.667 12.5H14.167V17.5" stroke="#999999" stroke-width="1.5" stroke-linecap="round" stroke-linejoin="round"/>
    <path d="M9.16699 12.5V17.5H10.0003C10.4424 17.5 10.8663 17.3244 11.1788 17.0118C11.4914 16.6993 11.667 16.2754 11.667 15.8333V14.1667C11.667 13.7246 11.4914 13.3007 11.1788 12.9882C10.8663 12.6756 10.4424 12.5 10.0003 12.5H9.16699Z" stroke="#999999" stroke-width="1.5" stroke-linecap="round" stroke-linejoin="round"/>
  </g>
  <defs>
    <clipPath id="clip0_3958_2628">
      <rect width="20" height="20" fill="white"/>
    </clipPath>
  </defs>
</svg>