<svg xmlns="http://www.w3.org/2000/svg" width="18" height="18" viewBox="0 0 18 18" fill="none">
  <path d="M13.4444 13.4444H15.2222C15.6937 13.4444 16.1459 13.2571 16.4793 12.9237C16.8127 12.5903 17 12.1382 17 11.6667V8.11111C17 7.63962 16.8127 7.18743 16.4793 6.85403C16.1459 6.52063 15.6937 6.33333 15.2222 6.33333H2.77778C2.30628 6.33333 1.8541 6.52063 1.5207 6.85403C1.1873 7.18743 1 7.63962 1 8.11111V11.6667C1 12.1382 1.1873 12.5903 1.5207 12.9237C1.8541 13.2571 2.30628 13.4444 2.77778 13.4444H4.55556M13.4444 6.33333V2.77778C13.4444 2.30628 13.2571 1.8541 12.9237 1.5207C12.5903 1.1873 12.1382 1 11.6667 1H6.33333C5.86184 1 5.40965 1.1873 5.07625 1.5207C4.74286 1.8541 4.55556 2.30628 4.55556 2.77778V6.33333M4.55556 11.6667C4.55556 11.1952 4.74286 10.743 5.07625 10.4096C5.40965 10.0762 5.86184 9.88889 6.33333 9.88889H11.6667C12.1382 9.88889 12.5903 10.0762 12.9237 10.4096C13.2571 10.743 13.4444 11.1952 13.4444 11.6667V15.2222C13.4444 15.6937 13.2571 16.1459 12.9237 16.4793C12.5903 16.8127 12.1382 17 11.6667 17H6.33333C5.86184 17 5.40965 16.8127 5.07625 16.4793C4.74286 16.1459 4.55556 15.6937 4.55556 15.2222V11.6667Z" stroke="#999999" stroke-width="1.5" stroke-linecap="round" stroke-linejoin="round"/>
</svg>