<svg width="18" height="18" viewBox="0 0 18 18" fill="none" xmlns="http://www.w3.org/2000/svg">
<path d="M1 1H2.392C3.256 1 3.936 1.744 3.864 2.6L3.2 10.568C3.088 11.872 4.11999 12.992 5.43199 12.992H13.952C15.104 12.992 16.112 12.048 16.2 10.904L16.632 4.904C16.728 3.576 15.72 2.496 14.384 2.496H4.05601" stroke="white" stroke-width="2" stroke-miterlimit="10" stroke-linecap="round" stroke-linejoin="round"/>
<path d="M12.4 17C12.9523 17 13.4 16.5523 13.4 16C13.4 15.4477 12.9523 15 12.4 15C11.8477 15 11.4 15.4477 11.4 16C11.4 16.5523 11.8477 17 12.4 17Z" stroke="white" stroke-width="2" stroke-miterlimit="10" stroke-linecap="round" stroke-linejoin="round"/>
<path d="M6 17C6.55228 17 7 16.5523 7 16C7 15.4477 6.55228 15 6 15C5.44772 15 5 15.4477 5 16C5 16.5523 5.44772 17 6 17Z" stroke="white" stroke-width="2" stroke-miterlimit="10" stroke-linecap="round" stroke-linejoin="round"/>
<path d="M6.60001 5.79999H16.2" stroke="white" stroke-width="2" stroke-miterlimit="10" stroke-linecap="round" stroke-linejoin="round"/>
</svg>
