<svg xmlns="http://www.w3.org/2000/svg" width="25" height="18" viewBox="0 0 25 18" fill="none">
  <path d="M9.625 12.7342C9.625 13.2944 9.51345 13.8491 9.29673 14.3667C9.08001 14.8842 8.76235 15.3545 8.3619 15.7506C7.96145 16.1467 7.48604 16.4609 6.96282 16.6753C6.43961 16.8897 5.87883 17 5.3125 17C4.74617 17 4.18539 16.8897 3.66218 16.6753C3.13896 16.4609 2.66355 16.1467 2.2631 15.7506C1.86265 15.3545 1.54499 14.8842 1.32827 14.3667C1.11155 13.8491 1 13.2944 1 12.7342C1 12.174 1.11155 11.6193 1.32827 11.1018C1.54499 10.5842 1.86265 10.114 2.2631 9.71787C2.66355 9.32175 3.13896 9.00754 3.66218 8.79316C4.18539 8.57879 4.74617 8.46845 5.3125 8.46845C5.87883 8.46845 6.43961 8.57879 6.96282 8.79316C7.48604 9.00754 7.96145 9.32175 8.3619 9.71787C8.76235 10.114 9.08001 10.5842 9.29673 11.1018C9.51345 11.6193 9.625 12.174 9.625 12.7342ZM9.625 12.7342V4.20268C9.625 3.41777 8.659 2.78075 7.46875 2.78075C6.27706 2.78075 5.69775 3.30687 5.42606 3.74766L1.34356 11.0464M15.375 12.7342C15.375 13.8656 15.8294 14.9506 16.6381 15.7506C17.4469 16.5506 18.5438 17 19.6875 17C20.8312 17 21.9281 16.5506 22.7369 15.7506C23.5456 14.9506 24 13.8656 24 12.7342C24 11.6029 23.5456 10.5179 22.7369 9.71787C21.9281 8.91788 20.8312 8.46845 19.6875 8.46845C18.5438 8.46845 17.4469 8.91788 16.6381 9.71787C15.8294 10.5179 15.375 11.6029 15.375 12.7342ZM15.375 12.7342V4.20268C15.375 3.41777 16.341 2.78075 17.5312 2.78075C18.7229 2.78075 19.3022 3.30687 19.5739 3.74766L23.6564 11.0464M18.7474 3.02248L17.6994 1.22943C17.4694 0.876796 16.1814 0.940782 16.0938 1.35883L15.8393 3.32108M6.25262 3.02248L7.30056 1.22943C7.53056 0.875374 8.81856 0.940782 8.90625 1.35883L9.16069 3.32108M9.625 7.04653H15.375V9.89038H9.625V7.04653Z" stroke="#999999" stroke-width="2" stroke-linecap="round" stroke-linejoin="round"/>
</svg>